<svg width="41" height="41" viewBox="0 0 41 41" fill="none" xmlns="http://www.w3.org/2000/svg">
<path d="M18.6752 24.4214H16.7237V17.0454C16.7237 16.7216 16.5285 16.4295 16.2294 16.3056C15.9302 16.1816 15.5858 16.2503 15.3568 16.4791L13.2634 18.5725C12.9507 18.8851 12.9507 19.3921 13.2634 19.7049C13.5761 20.0176 14.0831 20.0176 14.3959 19.7049L15.1223 18.9784V24.4214H13.1706C12.7284 24.4214 12.3699 24.7799 12.3699 25.2221C12.3699 25.6644 12.7284 26.0229 13.1706 26.0229H18.6752C19.1174 26.0229 19.4759 25.6644 19.4759 25.2221C19.4759 24.7799 19.1174 24.4214 18.6752 24.4214Z" fill="black"/>
<path d="M18.0981 31.2268C17.8876 31.2268 17.681 31.3125 17.532 31.4614C17.3831 31.6103 17.2974 31.8169 17.2974 32.0283C17.2974 32.2389 17.3831 32.4447 17.532 32.5944C17.681 32.7433 17.8876 32.8282 18.0981 32.8282C18.3087 32.8282 18.5153 32.7433 18.6642 32.5944C18.8132 32.4447 18.8988 32.2389 18.8988 32.0283C18.8988 31.8169 18.8132 31.6103 18.6642 31.4614C18.5153 31.3125 18.3087 31.2268 18.0981 31.2268Z" fill="black"/>
<path d="M28.1212 12.3368C28.2702 12.1871 28.3558 11.9813 28.3558 11.7699C28.3558 11.5594 28.2702 11.3536 28.1212 11.2038C27.9723 11.0549 27.7657 10.9692 27.5551 10.9692C27.3446 10.9692 27.138 11.0549 26.989 11.2038C26.8401 11.3528 26.7544 11.5594 26.7544 11.7699C26.7544 11.9813 26.8401 12.1879 26.989 12.3368C27.138 12.4858 27.3446 12.5706 27.5551 12.5706C27.7657 12.5706 27.9723 12.4858 28.1212 12.3368Z" fill="black"/>
<path d="M38.0008 23.5087C36.205 21.7129 33.903 20.7247 31.5499 20.5429V5.60492C31.5499 4.2804 30.4723 3.20281 29.1478 3.20281H24.819V2.72239C24.819 1.22123 23.5978 0 22.0966 0C20.5954 0 19.3742 1.22123 19.3742 2.72239V3.20281H12.1781V2.72239C12.1781 1.22123 10.9568 0 9.45566 0C7.9545 0 6.73327 1.22123 6.73327 2.72239V3.20281H2.40435C1.07983 3.20281 0.00224304 4.2804 0.00224304 5.60492V30.4267C0.00224304 31.7512 1.07983 32.8288 2.40435 32.8288H14.8953C15.3375 32.8288 15.696 32.4704 15.696 32.0281C15.696 31.5859 15.3375 31.2274 14.8953 31.2274H2.40435C1.96284 31.2274 1.60365 30.8682 1.60365 30.4267V12.571H24.3523C24.7946 12.571 25.153 12.2126 25.153 11.7703C25.153 11.3281 24.7946 10.9696 24.3523 10.9696H1.60365V5.60492C1.60365 5.16341 1.96284 4.80422 2.40435 4.80422H6.73319V6.12538C6.73319 7.62654 7.95442 8.84777 9.45558 8.84777C10.9567 8.84777 12.178 7.62654 12.178 6.12538V4.80422H19.3741V6.12538C19.3741 7.62654 20.5954 8.84777 22.0965 8.84777C23.5977 8.84777 24.8189 7.62654 24.8189 6.12538V4.80422H29.1477C29.5893 4.80422 29.9484 5.16341 29.9484 5.60492V20.5436C27.5984 20.7272 25.3 21.7151 23.5064 23.5087C21.5706 25.4445 20.5046 28.0183 20.5046 30.7559C20.5046 33.4935 21.5706 36.0672 23.5064 38.0031C25.5045 40.0011 28.129 41.0001 30.7536 41.0001C33.3781 41.0001 36.0026 40.001 38.0007 38.0031C41.9968 34.0069 41.9968 27.5048 38.0008 23.5087ZM10.5766 6.12538C10.5766 6.74352 10.0737 7.24636 9.45558 7.24636C8.83744 7.24636 8.3346 6.74352 8.3346 6.12538V2.72239C8.3346 2.10425 8.83744 1.60141 9.45558 1.60141C10.0737 1.60141 10.5766 2.10425 10.5766 2.72239V6.12538ZM23.2175 6.12538C23.2175 6.74352 22.7147 7.24636 22.0965 7.24636C21.4784 7.24636 20.9755 6.74352 20.9755 6.12538V2.72239C20.9755 2.10425 21.4784 1.60141 22.0965 1.60141C22.7147 1.60141 23.2175 2.10425 23.2175 2.72239V6.12538ZM36.8684 36.8706C33.4968 40.2423 28.0105 40.2424 24.6388 36.8706C21.2671 33.4989 21.2671 28.0128 24.6388 24.6412C26.3246 22.9553 28.5391 22.1124 30.7536 22.1124C32.9681 22.1124 35.1825 22.9553 36.8684 24.6412C40.24 28.0128 40.24 33.4989 36.8684 36.8706Z" fill="black"/>
<path d="M30.746 36.0376C30.3038 36.0376 29.9453 36.3961 29.9453 36.8383V37.4154C29.9453 37.8576 30.3038 38.2161 30.746 38.2161C31.1883 38.2161 31.5467 37.8576 31.5467 37.4154V36.8383C31.5467 36.3961 31.1883 36.0376 30.746 36.0376Z" fill="black"/>
<path d="M30.746 25.4741C31.1883 25.4741 31.5467 25.1157 31.5467 24.6734V24.0964C31.5467 23.6541 31.1883 23.2957 30.746 23.2957C30.3038 23.2957 29.9453 23.6541 29.9453 24.0964V24.6734C29.9453 25.1157 30.3038 25.4741 30.746 25.4741Z" fill="black"/>
<path d="M24.6712 29.9475H24.0942C23.6519 29.9475 23.2935 30.306 23.2935 30.7482C23.2935 31.1904 23.6519 31.5489 24.0942 31.5489H24.6712C25.1135 31.5489 25.4719 31.1904 25.4719 30.7482C25.4719 30.306 25.1135 29.9475 24.6712 29.9475Z" fill="black"/>
<path d="M37.413 29.9629H36.836C36.3937 29.9629 36.0353 30.3214 36.0353 30.7636C36.0353 31.2058 36.3937 31.5643 36.836 31.5643H37.413C37.8553 31.5643 38.2137 31.2058 38.2137 30.7636C38.2137 30.3214 37.8553 29.9629 37.413 29.9629Z" fill="black"/>
<path d="M34.4328 25.9312L30.7602 29.6153L29.2865 28.0722C28.9812 27.7524 28.4743 27.7407 28.1545 28.0462C27.8347 28.3516 27.823 28.8584 28.1284 29.1782L30.1634 31.3089C30.3145 31.4671 30.5237 31.5566 30.7424 31.5566H30.7536C30.9665 31.5566 31.1705 31.4719 31.3207 31.3212L35.5669 27.0617C35.8791 26.7486 35.8783 26.2416 35.5651 25.9294C35.252 25.6173 34.745 25.618 34.4328 25.9312Z" fill="black"/>
</svg>
