<svg width="52" height="53" viewBox="0 0 52 53" fill="none" xmlns="http://www.w3.org/2000/svg">
<g filter="url(#filter0_d)">
<path d="M39.2738 35.2113C37.6076 33.5341 35.5275 33.5341 33.8719 35.2113C32.609 36.4882 31.3461 37.765 30.1045 39.0635C29.7648 39.4206 29.4783 39.4963 29.0644 39.2583C28.2472 38.8038 27.377 38.4359 26.5917 37.9381C22.9303 35.59 19.8633 32.5711 17.1464 29.1734C15.7986 27.4853 14.5994 25.6783 13.761 23.644C13.5912 23.2328 13.6231 22.9623 13.952 22.6268C15.2149 21.3825 16.446 20.1056 17.6877 18.8288C19.4175 17.0542 19.4175 14.9766 17.6771 13.1912C16.6901 12.174 15.7031 11.1785 14.7162 10.1614C13.6973 9.12259 12.6891 8.07298 11.6597 7.04501C9.99354 5.38945 7.91346 5.38945 6.25789 7.05584C4.98438 8.33268 3.76393 9.64198 2.46919 10.8972C1.26996 12.055 0.665044 13.4725 0.537692 15.1281C0.336052 17.8224 0.983422 20.3653 1.89611 22.8433C3.76393 27.9723 6.60811 32.5278 10.0572 36.7046C14.7162 42.353 20.2772 46.8219 26.7827 50.0465C29.7118 51.4965 32.747 52.611 36.0475 52.795C38.3186 52.9248 40.2926 52.3405 41.8738 50.5334C42.9563 49.2999 44.1768 48.1745 45.3229 46.9951C47.021 45.2421 47.0316 43.1213 45.3442 41.3899C43.3278 39.3232 41.3008 37.2673 39.2738 35.2113Z" fill="#002549"/>
<path d="M37.2468 26.5872L41.1628 25.9055C40.5473 22.2373 38.8493 18.9154 36.2704 16.2751C33.543 13.4942 30.0939 11.7412 26.2945 11.2002L25.7427 15.2147C28.6824 15.6367 31.3568 16.9893 33.4687 19.1426C35.4638 21.1769 36.7692 23.7522 37.2468 26.5872Z" fill="#002549"/>
<path d="M43.3702 9.23101C38.8493 4.62139 33.1291 1.71062 26.8146 0.8125L26.2627 4.82698C31.7176 5.60607 36.6631 8.1273 40.5685 12.0985C44.2723 15.8749 46.7026 20.6469 47.5834 25.8949L51.4995 25.2132C50.4701 19.132 47.6577 13.6134 43.3702 9.23101Z" fill="#002549"/>
</g>
<defs>
<filter id="filter0_d" x="-3.49927" y="0.8125" width="58.9988" height="59.9998" filterUnits="userSpaceOnUse" color-interpolation-filters="sRGB">
<feFlood flood-opacity="0" result="BackgroundImageFix"/>
<feColorMatrix in="SourceAlpha" type="matrix" values="0 0 0 0 0 0 0 0 0 0 0 0 0 0 0 0 0 0 127 0"/>
<feOffset dy="4"/>
<feGaussianBlur stdDeviation="2"/>
<feColorMatrix type="matrix" values="0 0 0 0 0 0 0 0 0 0 0 0 0 0 0 0 0 0 0.25 0"/>
<feBlend mode="normal" in2="BackgroundImageFix" result="effect1_dropShadow"/>
<feBlend mode="normal" in="SourceGraphic" in2="effect1_dropShadow" result="shape"/>
</filter>
</defs>
</svg>
