<svg width="23" height="27" viewBox="0 0 23 27" fill="none" xmlns="http://www.w3.org/2000/svg">
<g clip-path="url(#clip0)">
<g filter="url(#filter0_d)">
<path d="M17.1007 17.3745C16.3658 16.5274 15.4484 16.5274 14.7183 17.3745C14.1613 18.0194 13.6043 18.6644 13.0567 19.3202C12.9069 19.5006 12.7805 19.5388 12.598 19.4186C12.2376 19.189 11.8538 19.0032 11.5074 18.7518C9.89267 17.5658 8.54 16.0409 7.34179 14.3248C6.74736 13.4722 6.21847 12.5595 5.84871 11.532C5.77382 11.3243 5.78786 11.1876 5.93295 11.0182C6.48994 10.3897 7.03288 9.74475 7.58049 9.09983C8.34342 8.2035 8.34342 7.15413 7.57581 6.25234C7.14053 5.73858 6.70524 5.23576 6.26995 4.72201C5.82062 4.19733 5.37597 3.66718 4.92196 3.14796C4.18712 2.31175 3.26974 2.31175 2.53958 3.15343C1.97792 3.79835 1.43966 4.45967 0.868642 5.09366C0.339744 5.67846 0.0729549 6.39444 0.0167887 7.23065C-0.072141 8.59155 0.21337 9.87593 0.615894 11.1275C1.43966 13.7181 2.69404 16.0191 4.21521 18.1287C6.26995 20.9817 8.72254 23.2389 11.5917 24.8676C12.8835 25.6 14.2221 26.1629 15.6778 26.2559C16.6794 26.3214 17.55 26.0263 18.2474 25.1136C18.7248 24.4905 19.2631 23.9221 19.7685 23.3264C20.5174 22.441 20.5221 21.3698 19.7779 20.4953C18.8886 19.4514 17.9946 18.4129 17.1007 17.3745Z" fill="#002549"/>
<path d="M16.2065 13.0187L17.9336 12.6744C17.6621 10.8216 16.9132 9.14369 15.7759 7.81012C14.573 6.4055 13.0518 5.5201 11.3762 5.24683L11.1328 7.27451C12.4293 7.48766 13.6088 8.17084 14.5402 9.25846C15.4202 10.286 15.9959 11.5867 16.2065 13.0187Z" fill="#002549"/>
<path d="M18.9073 4.25212C16.9134 1.92384 14.3906 0.453632 11.6057 0L11.3623 2.02768C13.7681 2.42119 15.9492 3.69464 17.6716 5.70046C19.3051 7.6079 20.377 10.0182 20.7655 12.6689L22.4926 12.3246C22.0386 9.253 20.7982 6.46562 18.9073 4.25212Z" fill="#002549"/>
</g>
</g>
<defs>
<filter id="filter0_d" x="-3.99951" y="0" width="30.4921" height="34.2646" filterUnits="userSpaceOnUse" color-interpolation-filters="sRGB">
<feFlood flood-opacity="0" result="BackgroundImageFix"/>
<feColorMatrix in="SourceAlpha" type="matrix" values="0 0 0 0 0 0 0 0 0 0 0 0 0 0 0 0 0 0 127 0"/>
<feOffset dy="4"/>
<feGaussianBlur stdDeviation="2"/>
<feColorMatrix type="matrix" values="0 0 0 0 0 0 0 0 0 0 0 0 0 0 0 0 0 0 0.25 0"/>
<feBlend mode="normal" in2="BackgroundImageFix" result="effect1_dropShadow"/>
<feBlend mode="normal" in="SourceGraphic" in2="effect1_dropShadow" result="shape"/>
</filter>
<clipPath id="clip0">
<rect width="22.4927" height="26.2647" fill="white"/>
</clipPath>
</defs>
</svg>
